<?xml version="1.0" encoding="UTF-8" standalone="no"?>
<!DOCTYPE svg PUBLIC "-//W3C//DTD SVG 1.1//EN" "http://www.w3.org/Graphics/SVG/1.1/DTD/svg11.dtd">
<svg width="100%" height="100%" viewBox="0 0 160 160" version="1.1" xmlns="http://www.w3.org/2000/svg" xmlns:xlink="http://www.w3.org/1999/xlink" xml:space="preserve" xmlns:serif="http://www.serif.com/" style="fill-rule:evenodd;clip-rule:evenodd;stroke-linejoin:round;stroke-miterlimit:2;">
    <g transform="matrix(0.28948,0,0,0.28948,-54.705,-30.7703)">
        <path d="M256.418,188.976C248.558,188.944 240.758,190.308 233.379,193.013C220.308,197.613 209.533,205.888 201.091,217.802C193.02,229.329 188.977,242.195 188.977,256.409L188.977,508.89C188.977,527.332 195.52,543.29 208.576,556.732C222.032,569.803 237.99,576.331 256.418,576.331C275.259,576.331 291.204,569.803 304.274,556.747C317.73,543.291 324.441,527.332 324.441,508.89L324.441,462.983C324.584,453.04 334.824,455.655 340.01,462.983C349.691,479.76 372.36,494.119 394.193,494.119C416.026,494.119 438.005,482.196 448.375,462.983C452.304,458.354 463.377,450.455 464.52,462.983L464.52,508.89C464.52,527.332 471.047,543.29 484.104,556.732C497.574,569.803 513.511,576.331 531.953,576.331C550.78,576.331 566.739,569.803 579.809,556.747C593.265,543.291 599.977,527.332 599.977,508.89L599.977,256.409C599.977,242.195 595.752,229.329 587.309,217.802C579.224,205.874 568.653,197.613 555.597,193.013C547.912,190.314 540.228,188.976 532.543,188.976C511.788,188.976 494.301,197.046 480.073,213.188L411.636,293.281C410.107,294.438 405.006,303.247 394.178,303.247C383.379,303.247 378.868,294.439 377.325,293.296L308.297,213.188C294.47,197.046 277.173,188.976 256.418,188.976ZM682.904,188.983C666.763,188.983 652.926,194.748 641.404,206.271C630.261,217.413 624.691,231.054 624.691,247.196C624.691,263.338 630.261,277.174 641.404,288.697C652.926,299.839 666.763,305.41 682.904,305.41C699.046,305.41 712.88,299.839 724.412,288.697C735.935,277.174 741.693,263.338 741.693,247.196C741.693,231.054 735.935,217.413 724.412,206.271C712.88,194.748 699.046,188.983 682.904,188.983ZM683.473,316.947C667.331,316.947 653.495,322.713 641.972,334.236C630.449,345.768 624.691,359.602 624.691,375.744L624.691,518.118C624.691,534.259 630.449,548.095 641.972,559.618C653.504,570.761 667.341,576.331 683.473,576.331C699.624,576.331 713.27,570.761 724.412,559.618C735.935,548.095 741.693,534.259 741.693,518.118L741.693,375.744C741.693,359.593 735.935,345.759 724.412,334.236C713.261,322.713 699.614,316.947 683.473,316.947Z" style="fill-rule:nonzero;"/>
    </g>
</svg>
