<svg class="bi" fill="currentColor" version="1.1" viewBox="0 0 126.22 126.22" xmlns="http://www.w3.org/2000/svg"><g transform="translate(-54.697 -82.805)"><path d="m75.354 82.886c-4.5287-0.06275-5.1592 4.8149-4.8106 8.2767 0.03516 37.786-0.07041 75.581 0.05276 113.36 0.40371 2.8548 3.3766 4.9761 6.231 4.3072 4.713-0.16533 9.4829 0.32054 14.164-0.22427 6.7529-1.3204 11.866-8.1382 11.048-15.013v-67.35h31.531c0.0476 26.149-0.0949 52.311 0.0708 78.451 0.45285 2.8115 3.3948 4.867 6.2134 4.2096 4.713-0.16534 9.4829 0.32054 14.164-0.22428 6.7528-1.3207 11.866-8.1387 11.048-15.014 2.7e-4 -35.324-2.9e-4 -70.647-5.3e-4 -105.97 0.0631-4.5288-4.8143-5.1599-8.2762-4.8111h-81.436z" fill-rule="evenodd" stroke-width=".26458"/></g></svg>
