<?xml version="1.0" encoding="UTF-8" standalone="no"?>
<!-- Created with Inkscape (http://www.inkscape.org/) -->

<svg
   width="87.463753mm"
   height="6.3811951mm"
   viewBox="0 0 87.463753 6.3811951"
   version="1.1"
   id="svg5"
   xml:space="preserve"
   sodipodi:docname="sg.svg"
   inkscape:version="1.2.2 (732a01da63, 2022-12-09)"
   xmlns:inkscape="http://www.inkscape.org/namespaces/inkscape"
   xmlns:sodipodi="http://sodipodi.sourceforge.net/DTD/sodipodi-0.dtd"
   xmlns="http://www.w3.org/2000/svg"
   xmlns:svg="http://www.w3.org/2000/svg"><sodipodi:namedview
     id="namedview7"
     inkscape:showpageshadow="2"
     inkscape:pageopacity="0.0"
     inkscape:pagecheckerboard="0"
     inkscape:deskcolor="#d1d1d1"
     inkscape:document-units="mm"
     showgrid="false"
     inkscape:zoom="0.8919783"
     inkscape:cx="224.2207"
     inkscape:cy="394.62843"
     inkscape:window-width="1536"
     inkscape:window-height="953"
     inkscape:window-x="-8"
     inkscape:window-y="-8"
     inkscape:window-maximized="1"
     inkscape:current-layer="layer1" /><defs
     id="defs2" /><g
     inkscape:label="Layer 1"
     inkscape:groupmode="layer"
     id="layer1"
     transform="translate(-61.268121,-120.88919)"><g
       aria-label="Misskeyで遊べる新作ゲーム！"
       transform="matrix(0.48344509,0,0,0.48344509,-104.54736,102.23035)"
       id="text2330"
       style="text-orientation:upright;white-space:pre;fill:currentColor;fill-rule:evenodd;stroke-width:0.944882;stroke-linecap:round;stroke-linejoin:round;paint-order:stroke fill markers"><path
         d="m 350.49271,50.315861 h -2.24778 l -2.18318,-7.111503 -0.80739,7.111503 h -2.26716 l 1.40163,-10.63173 h 2.62241 l 2.35758,7.531347 2.35113,-7.531347 h 2.6224 l 1.40809,10.63173 h -2.27361 l -0.80093,-7.111503 z"
         style="fill-opacity:0.990506"
         id="path11300" /><path
         d="m 358.93479,39.361175 v 2.131513 h -2.25423 v -2.131513 z m -0.0904,3.029332 v 7.925354 h -2.07338 v -7.925354 z"
         style="fill-opacity:0.990506"
         id="path11302" /><path
         d="m 360.65292,47.958278 q 1.02055,0.665291 2.14443,0.665291 0.55549,0 0.87199,-0.187315 0.31649,-0.187315 0.31649,-0.52319 0,-0.284202 -0.2519,-0.458598 -0.22607,-0.155019 -1.00117,-0.381089 -1.10451,-0.316497 -1.58894,-0.691127 -0.79448,-0.600699 -0.79448,-1.718129 0,-1.03992 0.73635,-1.731047 0.80739,-0.755718 2.17026,-0.755718 1.16911,0 2.38342,0.600699 l -0.54902,1.866689 q -0.89782,-0.561945 -1.74397,-0.561945 -0.4263,0 -0.68467,0.180856 -0.23898,0.155019 -0.23898,0.452139 0,0.368171 0.41984,0.549026 0.1744,0.07751 1.30474,0.439221 0.86553,0.284202 1.29183,0.678209 0.62654,0.581322 0.62654,1.582487 0,1.18848 -0.87199,1.853771 -0.91074,0.710504 -2.4803,0.710504 -1.5502,0 -2.76451,-0.736341 z"
         style="fill-opacity:0.990506"
         id="path11304" /><path
         d="m 367.26707,47.958278 q 1.02055,0.665291 2.14444,0.665291 0.55548,0 0.87198,-0.187315 0.3165,-0.187315 0.3165,-0.52319 0,-0.284202 -0.25191,-0.458598 -0.22607,-0.155019 -1.00117,-0.381089 -1.10451,-0.316497 -1.58894,-0.691127 -0.79447,-0.600699 -0.79447,-1.718129 0,-1.03992 0.73634,-1.731047 0.80739,-0.755718 2.17026,-0.755718 1.16911,0 2.38342,0.600699 l -0.54902,1.866689 q -0.89782,-0.561945 -1.74397,-0.561945 -0.4263,0 -0.68467,0.180856 -0.23898,0.155019 -0.23898,0.452139 0,0.368171 0.41984,0.549026 0.1744,0.07751 1.30474,0.439221 0.86553,0.284202 1.29183,0.678209 0.62654,0.581322 0.62654,1.582487 0,1.18848 -0.87199,1.853771 -0.91073,0.710504 -2.4803,0.710504 -1.55019,0 -2.76451,-0.736341 z"
         style="fill-opacity:0.990506"
         id="path11306" /><path
         d="m 375.79313,45.465054 2.55781,-3.074547 h 2.33821 l -2.81618,3.41688 3.21664,4.508474 h -2.5126 l -2.78388,-4.198435 v 4.198435 h -2.07338 V 39.193237 h 2.07338 z"
         style="fill-opacity:0.990506"
         id="path11308" /><path
         d="m 388.29801,50.018741 q -1.25308,0.510271 -2.5772,0.510271 -1.76334,0 -2.80326,-0.904278 -1.30474,-1.130348 -1.30474,-3.210188 0,-1.795639 0.94949,-2.958282 1.03992,-1.278908 2.73867,-1.278908 1.41455,0 2.38988,0.910737 1.00116,0.923656 1.19494,2.758049 0.0517,0.497353 0.0517,1.149726 h -5.25773 q 0.084,0.697586 0.36817,1.046379 0.54902,0.671749 1.8021,0.671749 0.87198,0 1.65353,-0.284201 0.31004,-0.109806 0.79448,-0.348793 z m -4.57953,-4.514933 h 3.15852 q -0.0646,-0.497353 -0.25191,-0.820309 -0.41984,-0.716964 -1.33058,-0.716964 -1.33058,0 -1.57603,1.537273 z"
         style="fill-opacity:0.990506"
         id="path11310" /><path
         d="m 392.27037,48.081002 -2.75805,-5.690495 h 2.15735 l 1.66,3.630032 1.65999,-3.630032 h 2.15089 l -4.54722,9.404495 h -2.09922 z"
         style="fill-opacity:0.990506"
         id="path11312" /><path
         d="m 400.43192,40.857626 c -0.5159,0.03968 -1.48157,0.06614 -2.32818,0.0926 l 0.15874,1.851962 6.16439,-0.727556 c -0.48945,0.264566 -1.01858,0.62173 -1.32283,0.859839 -1.00535,0.820155 -1.64031,2.142985 -1.64031,3.518728 0,2.447236 1.89164,4.100773 5.07967,4.510851 l 0.83338,-1.732908 c -1.33606,-0.132283 -4.06109,-0.648186 -4.06109,-2.923454 0,-1.772592 1.48157,-2.88377 2.38109,-3.399673 1.4948,-0.846611 2.84409,-0.886296 3.75684,-0.925981 l -0.14551,-1.772592 z m 5.41038,3.42613 c 0.64818,0.833383 1.00535,1.441885 1.48156,2.500149 l 1.05827,-0.661415 c -0.50268,-1.005351 -0.92598,-1.732908 -1.52126,-2.447236 z m 1.81227,-1.018579 c 0.67465,0.859839 1.00535,1.415428 1.50803,2.48692 l 1.05826,-0.648186 c -0.48944,-0.965666 -0.88629,-1.64031 -1.54771,-2.434008 z"
         style="fill-opacity:0.990506"
         id="path11314" /><path
         d="m 413.95124,41.757151 h 0.50268 v 2.037158 c 0,1.217003 -0.21166,2.72503 -0.8863,3.743609 l 1.00535,1.230232 c 0.62173,-0.978894 1.09795,-2.142985 1.26992,-4.616677 h 0.87307 c -0.0926,2.037158 -0.10583,2.262039 -0.1852,2.923454 -0.0529,0.462991 -0.11905,0.740785 -0.47622,0.740785 h -0.82015 l 0.30425,1.349287 h 1.13763 c 0.84661,0 1.05827,-0.582045 1.17732,-1.362515 0.25134,-1.574168 0.22488,-3.96849 0.21165,-5.039983 h -2.22235 v -1.00535 h 1.8255 l 0.95244,1.150862 c 0.14551,-0.132283 0.15874,-0.15874 0.31748,-0.330708 v 0.93921 h 2.2885 c -0.14551,0.198424 -0.34394,0.357164 -0.55559,0.529132 h -0.42331 v 0.886296 h -1.99747 v 1.388971 h 1.99747 v 1.269917 c 0,0.238109 -0.14551,0.251338 -0.30425,0.251338 h -1.23023 l 0.22488,1.32283 h 1.83873 c 0.95244,0 0.96567,-0.85984 0.96567,-1.084721 v -1.759364 h 1.54771 v -1.388971 h -1.54771 v -0.462991 c 0.41008,-0.185196 1.01858,-0.714328 1.23023,-0.952437 v -1.296374 h -3.73038 c 0.0794,-0.105826 0.17197,-0.238109 0.47622,-0.674643 h 3.57164 v -1.428657 h -2.8044 c 0.15874,-0.370392 0.23811,-0.661415 0.33071,-0.965665 l -1.4948,-0.185197 c -0.17197,0.436534 -0.41008,1.097949 -1.08472,2.063615 v -0.674643 h -1.33606 v -1.283145 h -1.54771 v 1.283145 h -1.4022 v 0.992122 c -0.58204,-0.873067 -0.99212,-1.32283 -1.90487,-2.116528 l -1.11118,1.045036 c 0.93921,0.978894 1.37574,1.521255 1.78582,2.288496 l 1.23023,-1.137634 z m -3.02928,3.849435 h 1.08472 v 3.201249 c -0.15874,0.158739 -0.41008,0.38362 -1.3096,0.886296 l 0.64819,1.812277 c 0.68787,-0.515904 1.19054,-0.965666 1.83873,-1.759364 1.05826,1.375743 2.64566,1.415428 3.33353,1.415428 h 6.61415 l 0.34394,-1.534483 h -6.89195 c -0.5159,0 -2.79117,0 -3.05573,-1.772592 v -3.80975 h -2.60598 z"
         style="fill-opacity:0.990506"
         id="path11316" /><path
         d="m 436.4129,48.76815 c -0.7937,-0.7011 -2.72503,-2.394323 -5.1855,-5.767539 -1.13763,-1.547711 -1.4022,-1.918104 -2.24881,-1.918104 -0.75401,0 -1.16409,0.476219 -1.62708,1.084721 -2.11653,2.764715 -2.35464,3.068966 -3.14833,3.981718 l 1.38897,1.415428 0.58204,-0.806926 c 1.15086,-1.587396 1.98425,-2.72503 2.07685,-2.857313 0.48944,-0.648186 0.54236,-0.714328 0.75401,-0.714328 0.18519,0 0.22488,0.06614 0.64819,0.661415 1.28314,1.785821 3.09542,4.285969 5.64848,6.561237 z m -4.25952,-6.918401 c 0.75402,0.754013 1.20378,1.32283 1.82551,2.328181 l 0.95244,-0.806927 c -0.67465,-0.992122 -1.15086,-1.613852 -1.87842,-2.288496 z m 1.71968,-1.190547 c 0.89953,0.899524 1.16409,1.269917 1.85197,2.314952 l 0.96566,-0.806926 c -0.62173,-0.899524 -1.15086,-1.560939 -1.90487,-2.248811 z"
         style="fill-opacity:0.990506"
         id="path11318" /><path
         d="m 439.11147,47.776027 c 1.69322,-1.574168 2.9896,-2.791171 5.26487,-2.791171 2.16944,0 2.69857,1.24346 2.69857,2.076843 0,0.224881 0,1.137634 -1.00535,1.799049 -0.71433,-1.4022 -2.05039,-2.037158 -3.24094,-2.037158 -1.36251,0 -2.31495,0.833383 -2.31495,1.971016 0,1.56094 1.78582,2.235583 3.51873,2.235583 2.96314,0 4.77542,-1.772592 4.77542,-4.008175 0,-1.904875 -1.37575,-3.465815 -3.86267,-3.465815 -0.67464,0 -1.1244,0.119055 -1.48157,0.198425 0.75402,-0.582045 1.95779,-1.521255 3.67747,-2.698573 l -0.75401,-1.269917 c -2.09007,0.291023 -4.12723,0.370392 -6.70675,0.343936 l 0.14551,1.666766 c 1.70645,-0.03968 2.59275,-0.105827 4.2066,-0.291023 l -6.00565,4.947384 z m 5.47652,1.746136 c -0.14551,0.02646 -0.39685,0.06614 -0.74079,0.06614 -0.72755,0 -1.77259,-0.251337 -1.77259,-0.820154 0,-0.317479 0.34394,-0.489447 0.68787,-0.489447 0.13229,0 1.16409,0 1.82551,1.24346 z"
         style="fill-opacity:0.990506"
         id="path11320" /><path
         d="m 451.03017,50.752395 c 0.46299,-0.330708 1.21701,-0.899525 2.16944,-2.209126 v 3.002824 h 1.4948 v -3.055738 c 0.34394,0.529132 0.56882,0.793698 1.17732,1.388972 l 0.78047,-1.415428 c -0.43653,-0.291023 -0.80693,-0.555589 -1.56094,-1.428657 h 1.74614 v -1.441884 h -2.14299 V 44.56155 h 2.35464 v -1.441884 h -1.16409 c 0.17197,-0.595274 0.21165,-0.767242 0.41008,-1.653538 h 0.62173 v -1.441885 h -2.1959 v -0.992122 h -1.52126 v 0.992122 h -2.36786 v 1.441885 h 0.75401 c 0.17197,0.515904 0.26457,1.111177 0.34394,1.653538 h -1.34929 v 1.441884 h 2.6192 v 1.031808 h -2.55306 v 1.441884 h 2.11653 c -0.67464,0.846612 -1.5874,1.547712 -2.48692,2.142985 z m 3.79652,-9.286267 c -0.0529,0.423306 -0.19842,1.190547 -0.34393,1.653538 h -1.12441 c -0.0926,-0.555589 -0.19842,-1.124406 -0.35716,-1.653538 z m 7.35494,-2.473692 c -2.15621,0.965666 -4.10077,0.939209 -4.70928,0.939209 v 5.238407 c 0,2.910226 -0.71432,4.219828 -1.61385,5.37069 l 1.46834,1.005351 c 0.59528,-0.846611 1.69323,-2.407551 1.69323,-6.402498 v -0.436533 h 1.15086 v 6.839031 h 1.61385 v -6.839031 h 1.16409 v -1.56094 h -3.9288 v -1.732907 c 1.3096,-0.05291 2.75148,-0.370393 3.9288,-0.899525 z"
         style="fill-opacity:0.990506"
         id="path11322" /><path
         d="m 465.19768,51.559321 h 1.69322 v -9.153984 c 0.64819,-1.402199 0.92598,-2.56629 1.05826,-3.161563 l -1.61385,-0.198425 c -0.75401,3.240934 -1.99747,4.484394 -2.8044,5.238407 l 0.6085,1.812277 c 0.30425,-0.264566 0.58205,-0.515904 1.05827,-1.045036 z m 4.36533,-12.513972 c -0.31747,1.375743 -1.00535,3.148336 -2.42077,4.537307 l 0.85984,1.627081 c 0.41007,-0.410077 1.15086,-1.150862 2.07684,-2.830856 h 0.25134 v 9.18044 h 1.70645 V 48.76815 h 3.88912 v -1.587396 h -3.88912 v -1.627081 h 3.88912 v -1.574168 h -3.88912 v -1.600624 h 4.19337 v -1.600625 h -5.43683 c 0.26456,-0.754013 0.37039,-1.16409 0.46299,-1.574167 z"
         style="fill-opacity:0.990506"
         id="path11324" /><path
         d="m 481.41558,51.162472 c 3.42613,-1.971017 3.95526,-4.801873 4.00818,-7.407848 h 3.30707 v -1.719679 h -7.1036 c 0.35717,-0.78047 0.52914,-1.217004 0.82016,-2.037158 l -1.70645,-0.542361 c -0.43654,1.283146 -1.32283,3.58487 -3.43936,5.926279 l 1.48157,1.005351 c 0.91275,-0.978895 1.46834,-1.825506 1.94456,-2.632432 h 2.87054 c -0.0661,2.367866 -0.6085,4.484394 -3.65101,6.164388 z m 3.92881,-11.945155 c 0.55559,0.85984 0.85984,1.468341 1.217,2.473692 l 1.05826,-0.46299 c -0.43653,-1.045036 -0.74078,-1.693223 -1.28314,-2.447236 z m 2.09007,-0.198424 c 0.54236,0.873067 0.84661,1.521254 1.17732,2.48692 l 1.05826,-0.449762 c -0.38362,-0.978894 -0.7011,-1.666766 -1.24346,-2.460464 z"
         style="fill-opacity:0.990506"
         id="path11326" /><path
         d="m 490.8738,44.468952 v 1.679994 h 11.16469 v -1.679994 z"
         style="fill-opacity:0.990506"
         id="path11328" /><path
         d="m 515.39907,50.104208 c -1.09795,-2.539834 -2.23558,-4.365339 -3.42613,-6.005648 l -1.48157,0.846611 c 0.26457,0.370392 0.89953,1.256688 1.62708,2.539834 l -4.41825,0.568817 c 0.46299,-1.058265 1.61385,-3.822979 2.97637,-7.844382 l -1.71968,-0.595274 c -1.4022,4.219828 -2.23558,6.204073 -3.26739,8.704222 l -1.86519,0.251337 0.41008,1.693223 8.70422,-1.217004 c 0.41008,0.820155 0.67464,1.48157 0.84661,1.904875 z"
         style="fill-opacity:0.990506"
         id="path11330" /><path
         d="m 521.92063,39.759677 0.22488,7.526903 h 1.53448 l 0.22488,-7.526903 z m 0.0265,10.556184 h 1.91811 v -1.891647 h -1.91811 z"
         style="fill-opacity:0.990506"
         id="path11332" /></g></g></svg>
