<svg xmlns="http://www.w3.org/2000/svg" xmlns:xlink="http://www.w3.org/1999/xlink" viewBox="0 0 685 685"><defs><clipPath id="a"><rect width="685" height="685" style="fill:none"/></clipPath></defs><g style="clip-path:url(#a)"><path d="M339.7341,406.7189a3,3,0,0,0,5.5417-.001c8.7028-20.9338,18.248-42.3391,18.248-42.3391a11.23,11.23,0,0,1,7.3533-6.5944,104.09,104.09,0,1,0-56.75,0,11.3037,11.3037,0,0,1,7.3789,6.5944S331.0241,385.7847,339.7341,406.7189Z" style="fill:#1f7acc"/><path d="M195.3562,527.28h3.7669a.6669.6669,0,0,0,.5209-.2971l15.5635-25.4793,8.4644,29.152a.4754.4754,0,0,0,.44.3338H240.45a.2341.2341,0,0,0,.2434-.3207l-17.2283-54.5489a.511.511,0,0,0-.4543-.3325h-6.1332a.6838.6838,0,0,0-.534.2972l-20.9874,32.5275L174.374,476.0841a.6949.6949,0,0,0-.5366-.2972h-6.1333a.5091.5091,0,0,0-.4528.3325l-17.2271,54.5489a.2329.2329,0,0,0,.2434.3207h16.3332a.4737.4737,0,0,0,.4424-.3338l8.4643-29.152,15.5649,25.4793a.6593.6593,0,0,0,.5222.2971Z" style="fill:#005bac"/><path d="M150.7663,500.1131V500.1a.3558.3558,0,0,0-.3429-.2736H103.8873a4.4593,4.4593,0,0,0,0,8.9186H131.542c-3.2944,8.7025-14.4367,15.0975-27.6547,15.0975-15.8254,0-28.6468-9.1554-28.6468-20.4508s12.8214-20.46,28.6468-20.46c8.6436,0,16.3829,2.7341,21.6365,7.0624a.18.18,0,0,1,.0537.0485.3341.3341,0,0,0,.1924.0458h19.0162a.3483.3483,0,0,0,.35-.3442.3078.3078,0,0,0-.0824-.2134c-.0105-.0236-.0249-.0236-.0275-.0367-8.0992-8.6318-23.4833-14.4444-41.1384-14.4444-26.0671,0-47.2,12.688-47.2,28.3418,0,15.66,21.1326,28.3459,47.2,28.3459,26.0605,0,47.1893-12.6855,47.1893-28.3459a17.656,17.656,0,0,0-.31-3.2786" style="fill:#005bac"/><path d="M286.8292,475.049c-26.0631,0-47.1893,12.688-47.1893,28.3445,0,15.659,21.1262,28.3431,47.1893,28.3431,26.0657,0,47.2-12.6841,47.2-28.3431,0-15.6565-21.134-28.3445-47.2-28.3445m0,48.7939c-15.8148,0-28.6415-9.1554-28.6415-20.4494s12.8267-20.4626,28.6415-20.4626c15.8253,0,28.6547,9.1672,28.6547,20.4626s-12.8294,20.4494-28.6547,20.4494" style="fill:#005bac"/><path d="M532.9928,530.11a.8071.8071,0,0,0,.8153.8783h9.8557a.9684.9684,0,0,0,.9476-.8783l1.6924-22.5712a.8079.8079,0,0,0-.8155-.8781h-9.8556a.9676.9676,0,0,0-.9476.8781Z" style="fill:#393c41"/><path d="M590.0324,506.6606a.8061.8061,0,0,0-.8141.8782l1.7106,22.5712a.9686.9686,0,0,0,.9477.8782h9.857c.4842,0,1.4072-.3953,1.37-.8782l-2.2685-22.5712a.9674.9674,0,0,0-.9475-.8782Z" style="fill:#393c41"/><path d="M600.51,495.4816a.8837.8837,0,0,0,.8809-.8809v-9.4852a.8837.8837,0,0,0-.8809-.8808H574.1557a.883.883,0,0,1-.881-.881v-6.6869a.8837.8837,0,0,0-.8808-.8808h-9.4866a.8837.8837,0,0,0-.8808.8808v6.6869a.883.883,0,0,1-.8808.881H534.9791a.8837.8837,0,0,0-.8809.8808v9.4852a.8837.8837,0,0,0,.8809.8809h26.1666a.8829.8829,0,0,1,.8808.8808v33.7448a.8838.8838,0,0,0,.8808.8809h9.4866a.8838.8838,0,0,0,.8808-.8809V496.3624a.8829.8829,0,0,1,.881-.8808Z" style="fill:#393c41"/><path d="M607.7729,475.0486h6.6835a.8809.8809,0,0,1,.8809.8809v12.9829a.8808.8808,0,0,1-.8808.8808h-6.6837a.8807.8807,0,0,1-.8807-.8807V475.9295A.8808.8808,0,0,1,607.7729,475.0486Z" style="fill:#1f7acc"/><path d="M620.748,475.0486h6.6836a.8809.8809,0,0,1,.8809.8809v12.983a.8808.8808,0,0,1-.8808.8808H620.748a.8808.8808,0,0,1-.8808-.8808v-12.983A.8808.8808,0,0,1,620.748,475.0486Z" style="fill:#1f7acc"/><path d="M348.6386,514.365a.5956.5956,0,0,0,0,.839l7.1137,7.1135a.5971.5971,0,0,0,.84,0l25.7856-25.7856a.5932.5932,0,0,1,.839,0L416.8938,530.27a.5944.5944,0,0,0,.839,0l7.1136-7.1136a.5958.5958,0,0,0,0-.839L383.225,480.6189a.5946.5946,0,0,0-.839-.0013Z" style="fill:#393c41"/><path d="M417.6976,491.6665a8.3093,8.3093,0,1,0-8.3086-8.3086,8.3084,8.3084,0,0,0,8.3086,8.3086" style="fill:#1f7acc"/><path d="M443.6459,530.3989a.5144.5144,0,0,0,.5222.589h10.9264a.6874.6874,0,0,0,.6648-.589l5.9095-49.13a.5146.5146,0,0,0-.5236-.589H450.219a.6872.6872,0,0,0-.6636.589Z" style="fill:#393c41"/><path d="M487.9093,480.6794a.515.515,0,0,0-.5223.589l5.9631,49.13a.6887.6887,0,0,0,.6649.59h10.9263a.5154.5154,0,0,0,.5222-.59l-5.9631-49.13a.69.69,0,0,0-.6649-.589Z" style="fill:#393c41"/><path d="M515.5316,475.0486a8.3092,8.3092,0,1,0,8.3084,8.3085,8.3084,8.3084,0,0,0-8.3084-8.3085" style="fill:#1f7acc"/></g></svg>