<svg viewBox="0 0 159 46" fill="none" xmlns="http://www.w3.org/2000/svg"><g clip-path="url(#clip0_2856_17617)"><path d="M23.252 45.752C35.8176 45.752 46.004 35.5656 46.004 23C46.004 10.4345 35.8176 0.248047 23.252 0.248047C10.6864 0.248047 0.5 10.4345 0.5 23C0.5 35.5656 10.6864 45.752 23.252 45.752Z" fill="#1C68F3"></path><path d="M123.615 17.2758C127.786 17.2758 132.523 18.8783 132.806 24.0061H126.976C126.854 22.5238 125.478 21.8428 123.656 21.8428C121.955 21.8428 121.186 22.4838 121.186 23.2449C121.186 23.8859 121.672 24.4868 123.211 24.7673L126.895 25.3682C130.579 26.0492 133.009 27.8119 133.009 31.2572C133.009 35.744 128.919 37.8272 123.818 37.8272C118.676 37.8272 114.506 35.704 114.101 30.5361L119.931 30.5761C120.214 32.2587 121.631 33.0199 123.696 33.0199C125.437 33.0199 126.49 32.4991 126.49 31.6578C126.49 31.0168 125.883 30.496 124.587 30.2957L120.619 29.6147C117.218 29.0538 114.87 27.1709 114.87 23.7657C114.87 19.6795 118.392 17.2758 123.615 17.2758ZM99.039 17.3514C101.181 17.3514 102.959 17.9116 104.415 18.832V17.7916H110.962V37.2004H104.415V36.1199C102.959 37.0403 101.181 37.6006 99.039 37.6006C93.7443 37.6006 89.2984 33.2386 89.2984 27.476C89.2984 21.6733 93.7443 17.3514 99.039 17.3514ZM60.6874 9.94683L70.5053 24.5074L80.2825 9.94683H85.3943V37.2228H78.538V23.5447L72.412 32.8907V32.9308H68.5985V32.8907L62.4319 23.4645L62.4725 37.2228H55.6162V9.94683H60.6874ZM143.175 8.81348V25.0988L150.026 17.8164H157.851L150.391 25.739L158.5 37.2228H150.635L145.931 30.5006L143.175 33.4215V37.2228H136.607V8.81348H143.175ZM100.332 22.6338C97.6648 22.6338 95.7247 24.7948 95.7247 27.476C95.7247 30.1572 97.6648 32.2781 100.332 32.2781C101.787 32.2781 103.202 31.878 104.415 30.4773V24.4746C103.202 23.074 101.787 22.6338 100.332 22.6338Z" fill="#1C68F3"></path><path fill-rule="evenodd" clip-rule="evenodd" d="M36.9848 17.4074V24.9631H13.9542L12.9634 24.9632C14.0121 29.5477 18.1742 32.9721 23.149 32.9721C27.2618 32.9721 30.8192 30.6315 32.521 27.2299L36.9848 27.2299V33.5765C36.9848 35.0788 35.7474 36.2966 34.2211 36.2966H12.1118C10.5855 36.2966 9.34814 35.0788 9.34814 33.5765V17.4074H36.9848ZM29.8704 27.2299C28.4047 29.3389 25.9411 30.7229 23.149 30.7229C20.3569 30.7229 17.8933 29.3389 16.4276 27.2299H29.8704ZM17.2553 19.2208C15.0895 19.2208 13.2978 20.797 12.9998 22.8475L15.3556 22.8475C15.6146 22.0583 16.3672 21.4875 17.2553 21.4875C18.1434 21.4875 18.896 22.0583 19.155 22.8475L21.5108 22.8475C21.2128 20.797 19.4211 19.2208 17.2553 19.2208ZM29.0776 19.2208C26.9118 19.2208 25.1201 20.797 24.8221 22.8475L27.1779 22.8475C27.4369 22.0583 28.1895 21.4875 29.0776 21.4875C29.9657 21.4875 30.7183 22.0583 30.9773 22.8475L33.3331 22.8475C33.0351 20.797 31.2434 19.2208 29.0776 19.2208ZM34.2211 9.09619C35.7474 9.09619 36.9848 10.314 36.9848 11.8162V15.1407H9.34814V11.8162C9.34814 10.314 10.5855 9.09619 12.1118 9.09619H34.2211Z" fill="white"></path></g><defs><clipPath id="clip0_2856_17617"><rect width="158" height="45.504" fill="white" transform="translate(0.5 0.248047)"></rect></clipPath></defs></svg>