<svg xmlns="http://www.w3.org/2000/svg" xmlns:xlink="http://www.w3.org/1999/xlink" viewBox="0 0 140 36.022">
    <title>Xfolio</title>
    <defs>
        <linearGradient id="linear-gradient" x1="0.295" y1="0.797" x2="0.89" y2="0.042" gradientUnits="objectBoundingBox">
            <stop offset="0" stop-color="#0068b7"></stop>
            <stop offset="0.089" stop-color="#056db9"></stop>
            <stop offset="0.324" stop-color="#3297ce"></stop>
            <stop offset="0.617" stop-color="#53b5de"></stop>
            <stop offset="0.846" stop-color="#67c8e7"></stop>
            <stop offset="1" stop-color="#6fcfeb"></stop>
        </linearGradient>
    </defs>
    <g id="1956" data-name="1956" transform="translate(-522.68 -447.095)">
        <path id="1043" data-name="1043" d="M556.169,462.061l-5.825-5.825,5.165-5.165h4.064l7.193,7.193L551.13,473.9l-3.6,3.6L528.3,458.263l7.193-7.193h4.062l5.165,5.165-5.825,5.825,2.811,2.811,5.825-5.825,5.825,5.825ZM553.863,447.1l-6.329,6.33-6.33-6.33h-7.355L522.68,458.263l24.854,24.854,24.854-24.854L561.219,447.1Z" transform="translate(0 0)" fill="url(#linear-gradient)"></path>
        <g id="1958" data-name="1958" transform="translate(578.822 454.534)">
            <path id="1044" data-name="1044" d="M703.172,493.984l6.459-11.853-5.76-11.12h5.061l3.662,7.325,3.7-7.325h5.027l-5.793,11.12,6.492,11.853h-5.028l-4.395-7.824-4.361,7.824Zm47.5-7.358c0,4.561-2.164,7.658-7.191,7.658-4.828,0-7.192-3-7.192-7.658v-2c0-4.994,2.63-7.591,7.192-7.591,4.628,0,7.191,2.6,7.191,7.591Zm-4.228-.133v-1.732c0-2.663-.866-4.128-2.963-4.128s-2.963,1.465-2.963,4.128v1.732c0,2.4.6,4.195,2.963,4.195,2.33,0,2.963-1.8,2.963-4.195m17.8-15.482h4.595v3.729h-4.595Zm.166,6.326h4.261v16.647h-4.261Zm22.62,9.289c0,4.562-2.164,7.658-7.191,7.658-4.828,0-7.192-3-7.192-7.658v-2c0-4.994,2.631-7.591,7.192-7.591,4.628,0,7.191,2.6,7.191,7.591Zm-4.228-.133v-1.731c0-2.663-.866-4.129-2.963-4.129s-2.963,1.465-2.963,4.129v1.731c0,2.4.6,4.195,2.963,4.195,2.33,0,2.963-1.8,2.963-4.195m-22.136,2.874h0m-2.011.463.011.011-.011-.011m.532.335h0m-.252-.131-.04-.025.04.025m.252.132h0a1.962,1.962,0,0,1-.251-.131l-.04-.024a2,2,0,0,1-.228-.169l-.011-.011a2,2,0,0,1-.39-.463h0a1.976,1.976,0,0,1-.291-1.032V471.011h-4.262v17.646c0,.026,0,.049,0,.074,0,.1.007.188.01.282a5.211,5.211,0,0,0,5.192,4.97h1.519v-3.663h-.474a1.982,1.982,0,0,1-.774-.156m-28.629-13.437a2,2,0,0,1,1.988-1.988h.709v-3.729h-1.232c-.367,0-.714.01-1.042.03a5.2,5.2,0,0,0-4.648,5.1c0,.1,0,.2,0,.3v.9H724.2v3.6h2.131v13.051h4.228V480.933h2.7v-3.6h-2.7v-.609Z" transform="translate(-703.172 -471.011)" fill="#323e48" class="fill"></path>
        </g>
    </g>
</svg>